<svg width="536" height="176" viewBox="0 0 536 176" fill="none" xmlns="http://www.w3.org/2000/svg">
<g filter="url(#filter0_d_192_189)">
<path d="M409.865 56.4659L390.426 23.9496C389.603 22.5829 388.272 21.5969 386.725 21.2069C385.177 20.8168 383.538 21.0543 382.165 21.8675L354.114 38.6259C353.435 39.0318 352.683 39.3 351.9 39.415C351.117 39.53 350.319 39.4897 349.552 39.2963C348.785 39.103 348.063 38.7603 347.429 38.288C346.794 37.8157 346.259 37.223 345.854 36.5439L329.087 8.50676C328.682 7.82757 328.147 7.23487 327.512 6.76259C326.878 6.2903 326.156 5.94768 325.389 5.75431C324.622 5.56094 323.824 5.52064 323.041 5.63567C322.258 5.75069 321.506 6.01879 320.827 6.42468L288.294 25.8302C286.92 26.653 285.928 27.9872 285.538 29.5399C285.147 31.0925 285.389 32.7366 286.211 34.111L302.953 62.1485C303.359 62.8272 303.627 63.5793 303.742 64.3617C303.857 65.1441 303.817 65.9415 303.623 66.7083C303.43 67.4751 303.087 68.1963 302.614 68.8306C302.142 69.4649 301.549 69.9999 300.869 70.405L272.818 87.1634C272.138 87.5685 271.545 88.1035 271.073 88.7378C270.6 89.3721 270.258 90.0932 270.064 90.86C269.871 91.6268 269.83 92.4242 269.945 93.2066C270.06 93.989 270.329 94.7411 270.735 95.4198L290.174 127.936C290.579 128.615 291.114 129.208 291.749 129.68C292.383 130.153 293.105 130.495 293.872 130.689C294.639 130.882 295.437 130.922 296.22 130.807C297.003 130.692 297.755 130.424 298.434 130.018L326.486 113.26C327.862 112.445 329.505 112.207 331.056 112.597C332.608 112.987 333.943 113.973 334.77 115.341L351.511 143.281C352.33 144.652 353.658 145.643 355.206 146.038C356.754 146.433 358.395 146.199 359.771 145.388L392.304 125.958C393.678 125.135 394.669 123.801 395.06 122.248C395.45 120.695 395.208 119.051 394.387 117.677L377.645 89.6394C377.239 88.9607 376.971 88.2086 376.856 87.4263C376.741 86.6438 376.781 85.8465 376.975 85.0796C377.168 84.3128 377.511 83.5916 377.984 82.9573C378.456 82.323 379.049 81.7881 379.729 81.383L407.78 64.6245C408.459 64.2194 409.052 63.6845 409.525 63.0502C409.997 62.4159 410.34 61.6947 410.534 60.9279C410.727 60.1611 410.768 59.3637 410.653 58.5813C410.537 57.7989 410.269 57.0469 409.863 56.3682" fill="white"/>
<path d="M531.553 54.5131L531.093 54.7903L511.654 22.2739C511.4 21.8468 511.089 21.4571 510.728 21.1158C509.863 20.2845 508.747 19.7613 507.555 19.6273C506.362 19.4933 505.159 19.756 504.131 20.3747L476.079 37.1087C474.849 37.8476 473.411 38.1632 471.985 38.0069C470.558 37.8506 469.223 37.2311 468.182 36.2434C467.75 35.8324 467.379 35.361 467.081 34.8438L450.315 6.80664C450.061 6.37958 449.75 5.98981 449.389 5.64852C448.516 4.82252 447.397 4.30339 446.202 4.16975C445.007 4.0361 443.801 4.29519 442.767 4.90783L410.259 24.3373C409.829 24.5985 409.432 24.9093 409.076 25.2632C408.249 26.136 407.73 27.2541 407.596 28.4483C407.462 29.6425 407.721 30.8477 408.334 31.8815L425.101 59.9186C425.837 61.1503 426.149 62.5895 425.988 64.0153C425.827 65.441 425.203 66.7747 424.21 67.8117C423.803 68.2381 423.34 68.6081 422.835 68.9121L394.783 85.6462C394.361 85.9075 393.972 86.2181 393.624 86.5716C392.794 87.4423 392.272 88.5607 392.138 89.756C392.004 90.9512 392.266 92.1573 392.883 93.1899L412.176 125.758C412.437 126.179 412.748 126.568 413.102 126.916C413.975 127.742 415.094 128.261 416.288 128.395C417.483 128.528 418.689 128.269 419.723 127.657L447.775 110.898C449.007 110.162 450.447 109.851 451.873 110.011C453.3 110.172 454.634 110.796 455.672 111.788C456.098 112.195 456.468 112.658 456.773 113.163L473.636 141.15C473.889 141.577 474.201 141.966 474.562 142.308C475.427 143.139 476.542 143.662 477.735 143.796C478.927 143.93 480.131 143.667 481.159 143.049L513.692 123.643C514.114 123.382 514.503 123.071 514.851 122.718C515.681 121.847 516.203 120.729 516.337 119.533C516.471 118.338 516.209 117.132 515.592 116.1L498.85 88.062C498.111 86.8329 497.795 85.3954 497.952 83.9698C498.108 82.5442 498.728 81.2092 499.716 80.1694C500.127 79.7368 500.599 79.366 501.116 79.0685L529.143 62.3105C529.583 62.0646 529.982 61.7522 530.327 61.3846C531.151 60.5157 531.669 59.4019 531.803 58.2119C531.937 57.0219 531.679 55.8208 531.068 54.7907L531.528 54.5136L531.964 54.2369C532.703 55.466 533.019 56.9034 532.863 58.329C532.706 59.7546 532.087 61.0897 531.098 62.1295C530.687 62.562 530.215 62.9328 529.698 63.2304L501.671 79.9885C501.233 80.2269 500.834 80.5308 500.487 80.8898C499.661 81.7626 499.142 82.8807 499.008 84.0749C498.874 85.2691 499.133 86.4744 499.746 87.5082L516.513 115.545C517.255 116.779 517.57 118.224 517.409 119.655C517.248 121.086 516.62 122.424 515.623 123.463C515.213 123.88 514.75 124.241 514.246 124.539L481.713 143.969C480.482 144.709 479.042 145.023 477.614 144.862C476.187 144.701 474.852 144.074 473.817 143.079C473.385 142.677 473.014 142.213 472.716 141.704L456.024 113.714C455.762 113.293 455.451 112.904 455.098 112.556C454.224 111.73 453.106 111.211 451.911 111.077C450.716 110.944 449.51 111.203 448.476 111.815L420.424 128.55C419.195 129.288 417.756 129.604 416.33 129.448C414.904 129.291 413.568 128.672 412.528 127.684C412.101 127.277 411.731 126.814 411.427 126.309L392.036 93.7673C391.304 92.5344 390.995 91.0962 391.155 89.6714C391.316 88.2466 391.938 86.9133 392.927 85.8742C393.341 85.4551 393.803 85.0858 394.303 84.7739L422.354 68.0398C422.782 67.7865 423.172 67.4751 423.513 67.1144C424.343 66.2437 424.865 65.1252 424.999 63.93C425.133 62.7348 424.871 61.5286 424.254 60.4961L407.512 32.4585C406.773 31.2294 406.457 29.7919 406.614 28.3663C406.77 26.9407 407.39 25.6057 408.378 24.5659C408.796 24.1408 409.267 23.7708 409.778 23.465L442.312 4.05955C443.541 3.32057 444.98 3.00503 446.406 3.16131C447.832 3.31758 449.168 3.93703 450.208 4.92473C450.634 5.3425 451.004 5.81288 451.31 6.32444L468.052 34.362C468.313 34.7835 468.624 35.1723 468.977 35.5202C469.851 36.3462 470.969 36.8653 472.164 36.9989C473.359 37.1326 474.565 36.8735 475.599 36.2608L503.577 19.5036C504.809 18.7677 506.249 18.4561 507.676 18.6168C509.102 18.7776 510.436 19.4016 511.474 20.3933C511.9 20.8007 512.271 21.2632 512.575 21.7686L531.989 54.2854L531.553 54.5131Z" fill="white"/>
<path d="M167.47 59.0823L148.056 26.5655C147.233 25.1988 145.902 24.2129 144.355 23.8228C142.807 23.4328 141.168 23.6702 139.795 24.4834L111.744 41.2419C110.367 42.0563 108.725 42.2945 107.173 41.9047C105.622 41.5149 104.287 40.5286 103.459 39.1603L86.7173 11.1227C85.8941 9.7494 84.5592 8.75884 83.0058 8.36853C81.4524 7.97823 79.8075 8.2201 78.4324 9.04105L45.9236 28.4461C44.5503 29.2694 43.5583 30.6018 43.1635 32.153C42.7688 33.7041 43.0035 35.3484 43.8163 36.7274L60.5826 64.7645C60.9887 65.4432 61.2569 66.1952 61.372 66.9776C61.4871 67.76 61.4467 68.5575 61.2532 69.3243C61.0597 70.0911 60.7169 70.8123 60.2444 71.4466C59.7719 72.0809 59.1789 72.6158 58.4993 73.0209L30.448 89.7794C29.7684 90.1844 29.1755 90.7194 28.703 91.3537C28.2304 91.988 27.8876 92.7092 27.6941 93.476C27.5006 94.2428 27.4603 95.0402 27.5754 95.8226C27.6905 96.605 27.9587 97.3571 28.3648 98.0358L47.7793 130.553C48.6025 131.926 49.9374 132.916 51.4908 133.307C53.0442 133.697 54.6891 133.455 56.0642 132.634L84.0177 115.878C85.3907 115.064 87.0298 114.827 88.5773 115.217C90.1248 115.607 91.4551 116.593 92.2781 117.96L109.02 145.997C109.425 146.676 109.96 147.269 110.595 147.741C111.23 148.214 111.951 148.556 112.718 148.75C113.486 148.943 114.283 148.983 115.066 148.868C115.849 148.753 116.601 148.485 117.28 148.079L149.814 128.674C151.188 127.851 152.179 126.517 152.569 124.964C152.96 123.411 152.718 121.767 151.896 120.393L135.13 92.3558C134.724 91.6771 134.456 90.9249 134.341 90.1425C134.226 89.3601 134.266 88.5627 134.46 87.7959C134.653 87.0291 134.996 86.308 135.468 85.6737C135.941 85.0394 136.534 84.5044 137.213 84.0993L165.265 67.3409C165.944 66.9358 166.537 66.4008 167.01 65.7665C167.482 65.1322 167.825 64.4111 168.019 63.6443C168.212 62.8775 168.252 62.08 168.137 61.2976C168.022 60.5152 167.754 59.7631 167.348 59.0844" fill="white"/>
<path d="M289.159 57.1784L288.698 57.4311L269.284 24.9388C269.031 24.5117 268.719 24.1219 268.358 23.7806C267.487 22.951 266.368 22.4294 265.172 22.2957C263.977 22.1619 262.77 22.4233 261.737 23.0399L233.685 39.774C232.455 40.5129 231.017 40.8285 229.591 40.6722C228.164 40.5159 226.829 39.8965 225.789 38.9088C225.37 38.4846 225.001 38.0151 224.687 37.509L207.945 9.47149C207.684 9.05003 207.373 8.66125 207.019 8.31337C206.146 7.48736 205.028 6.96824 203.833 6.83459C202.638 6.70094 201.432 6.96004 200.398 7.57268L167.865 27.0026C167.438 27.2559 167.048 27.5674 166.706 27.928C165.882 28.7968 165.363 29.9107 165.229 31.1007C165.096 32.2907 165.354 33.4918 165.965 34.5219L182.731 62.559C183.465 63.7956 183.776 65.238 183.615 66.667C183.454 68.096 182.832 69.4336 181.841 70.4765C181.427 70.8957 180.965 71.265 180.465 71.577L152.413 88.311C151.987 88.566 151.598 88.8774 151.255 89.2364C150.417 90.1029 149.89 91.2221 149.756 92.4194C149.622 93.6167 149.889 94.8246 150.514 95.8547L169.904 128.372C170.165 128.793 170.476 129.182 170.829 129.53C171.703 130.356 172.821 130.875 174.016 131.009C175.211 131.143 176.417 130.883 177.451 130.271L205.502 113.512C206.735 112.776 208.175 112.465 209.601 112.626C211.028 112.786 212.362 113.41 213.399 114.402C213.826 114.809 214.196 115.272 214.5 115.777L231.365 143.813C231.626 144.234 231.937 144.623 232.29 144.971C233.161 145.8 234.281 146.322 235.476 146.456C236.672 146.59 237.879 146.328 238.912 145.711L271.445 126.306C271.867 126.045 272.256 125.734 272.604 125.381C273.43 124.508 273.95 123.39 274.084 122.195C274.217 121.001 273.958 119.796 273.345 118.762L256.579 90.7251C255.843 89.4934 255.531 88.0543 255.692 86.6285C255.853 85.2027 256.477 83.869 257.469 82.832C257.88 82.3995 258.352 82.0287 258.869 81.7312L286.896 64.9731C287.324 64.7198 287.714 64.4084 288.055 64.0477C288.885 63.177 289.407 62.0585 289.541 60.8633C289.675 59.6681 289.413 58.4619 288.796 57.4294L289.257 57.1767L289.717 56.8996C290.457 58.1301 290.771 59.5701 290.61 60.9969C290.45 62.4237 289.823 63.7578 288.827 64.7927C288.424 65.2244 287.961 65.5952 287.451 65.8931L259.4 82.6516C258.973 82.8962 258.583 83.1996 258.24 83.5526C257.414 84.4253 256.895 85.5435 256.761 86.7377C256.627 87.9319 256.886 89.1371 257.499 90.1708L274.266 118.208C275.002 119.44 275.313 120.879 275.153 122.305C274.992 123.73 274.367 125.064 273.375 126.101C272.968 126.527 272.505 126.897 271.999 127.201L239.466 146.631C238.235 147.371 236.795 147.685 235.367 147.524C233.94 147.364 232.605 146.737 231.57 145.742C231.143 145.334 230.773 144.872 230.469 144.366L213.604 116.331C213.351 115.904 213.039 115.514 212.679 115.173C211.805 114.347 210.687 113.828 209.492 113.694C208.297 113.56 207.091 113.82 206.057 114.432L178.03 131.166C176.795 131.903 175.354 132.217 173.924 132.061C172.494 131.905 171.155 131.287 170.109 130.301C169.696 129.881 169.328 129.42 169.008 128.926L149.593 96.3846C148.852 95.1541 148.538 93.714 148.699 92.2872C148.86 90.8604 149.487 89.5264 150.483 88.4915C150.892 88.0668 151.355 87.6969 151.859 87.3911L179.911 70.657C180.338 70.4037 180.728 70.0923 181.069 69.7316C181.896 68.8589 182.415 67.7407 182.549 66.5465C182.683 65.3523 182.423 64.147 181.811 63.1133L165.069 35.0757C164.325 33.8479 164.007 32.4094 164.164 30.9828C164.32 29.5562 164.943 28.2208 165.935 27.1831C166.352 26.758 166.823 26.388 167.335 26.0822L199.844 6.67718C201.078 5.94018 202.52 5.62584 203.949 5.78191C205.379 5.93798 206.718 6.55595 207.765 7.54197C208.182 7.96063 208.544 8.4312 208.842 8.94211L225.608 36.9792C225.869 37.4007 226.18 37.7895 226.534 38.1374C227.407 38.9634 228.526 39.4825 229.72 39.6161C230.915 39.7498 232.121 39.4907 233.155 38.878L261.207 22.1196C262.439 21.3836 263.879 21.0721 265.305 21.2328C266.732 21.3935 268.066 22.0176 269.104 23.0092C269.523 23.4232 269.893 23.8847 270.205 24.3845L289.619 56.9013L289.159 57.1784Z" fill="white"/>
</g>
<defs>
<filter id="filter0_d_192_189" x="-1.00012" y="-3" width="538.436" height="182.809" filterUnits="userSpaceOnUse" color-interpolation-filters="sRGB">
<feFlood flood-opacity="0" result="BackgroundImageFix"/>
<feColorMatrix in="SourceAlpha" type="matrix" values="0 0 0 0 0 0 0 0 0 0 0 0 0 0 0 0 0 0 127 0" result="hardAlpha"/>
<feOffset dx="-12" dy="12"/>
<feGaussianBlur stdDeviation="7.5"/>
<feComposite in2="hardAlpha" operator="out"/>
<feColorMatrix type="matrix" values="0 0 0 0 0 0 0 0 0 0 0 0 0 0 0 0 0 0 0.07 0"/>
<feBlend mode="normal" in2="BackgroundImageFix" result="effect1_dropShadow_192_189"/>
<feBlend mode="normal" in="SourceGraphic" in2="effect1_dropShadow_192_189" result="shape"/>
</filter>
</defs>
</svg>
