<svg width="536" height="174" viewBox="0 0 536 174" fill="none" xmlns="http://www.w3.org/2000/svg">
<g filter="url(#filter0_d_76_6)">
<path d="M150.025 57.3271L168.893 24.4765C169.692 23.0956 171.005 22.0866 172.546 21.6696C174.086 21.2526 175.729 21.4614 177.116 22.2505L205.456 38.5169C206.142 38.9108 206.899 39.1658 207.684 39.2672C208.468 39.3685 209.265 39.3143 210.029 39.1076C210.793 38.9008 211.508 38.5456 212.134 38.0623C212.76 37.579 213.285 36.9771 213.679 36.2909L229.953 7.9655C230.346 7.27934 230.871 6.6774 231.497 6.19411C232.124 5.71082 232.839 5.35565 233.603 5.14892C234.367 4.94219 235.164 4.88798 235.948 4.98932C236.733 5.09067 237.49 5.3456 238.176 5.73957L271.043 24.5743C272.431 25.3731 273.445 26.6898 273.863 28.2354C274.28 29.7809 274.067 31.429 273.27 32.8176L257.02 61.143C256.626 61.8287 256.371 62.5853 256.269 63.3696C256.168 64.1539 256.222 64.9505 256.429 65.7138C256.636 66.4771 256.991 67.1922 257.475 67.8182C257.958 68.4441 258.561 68.9687 259.247 69.3618L287.587 85.6281C288.273 86.0213 288.875 86.5458 289.359 87.1718C289.842 87.7977 290.198 88.5128 290.405 89.2761C290.611 90.0394 290.666 90.836 290.564 91.6203C290.463 92.4046 290.208 93.1612 289.814 93.8469L270.945 126.698C270.552 127.384 270.027 127.986 269.401 128.469C268.774 128.952 268.059 129.307 267.295 129.514C266.532 129.721 265.735 129.775 264.95 129.674C264.165 129.572 263.408 129.318 262.722 128.924L234.383 112.657C232.992 111.867 231.345 111.657 229.801 112.074C228.256 112.491 226.939 113.501 226.135 114.883L209.885 143.111C209.09 144.496 207.779 145.51 206.238 145.932C204.698 146.353 203.052 146.148 201.662 145.361L168.795 126.502C167.407 125.703 166.393 124.386 165.976 122.841C165.558 121.295 165.771 119.647 166.568 118.259L182.818 89.9333C183.213 89.2476 183.468 88.4909 183.569 87.7066C183.67 86.9224 183.616 86.1258 183.409 85.3625C183.203 84.5992 182.847 83.884 182.364 83.2581C181.88 82.6321 181.278 82.1076 180.591 81.7144L152.252 65.4481C151.565 65.0549 150.963 64.5304 150.48 63.9044C149.996 63.2785 149.641 62.5634 149.434 61.8001C149.227 61.0368 149.173 60.2402 149.274 59.4559C149.376 58.6717 149.631 57.915 150.025 57.2293" fill="white"/>
<path d="M28.3215 57.4984L28.7865 57.7674L47.655 24.9167C47.901 24.4853 48.2057 24.0902 48.5605 23.7427C49.411 22.8964 50.5168 22.3538 51.7069 22.199C52.897 22.0443 54.1049 22.2859 55.1437 22.8865L83.4833 39.1284C84.7257 39.8458 86.1692 40.1362 87.5926 39.955C89.0159 39.7739 90.3406 39.1312 91.3635 38.1255C91.789 37.7069 92.1517 37.2291 92.4403 36.7068L108.715 8.38134C108.961 7.94991 109.265 7.55477 109.62 7.20724C110.479 6.36612 111.588 5.82755 112.781 5.67307C113.973 5.51859 115.183 5.7566 116.228 6.3511L149.07 25.2103C149.504 25.4639 149.907 25.7677 150.27 26.1154C151.111 26.9736 151.65 28.0825 151.805 29.2742C151.959 30.4659 151.721 31.6754 151.126 32.7197L134.852 61.0452C134.137 62.2896 133.851 63.7339 134.036 65.1567C134.222 66.5794 134.869 67.902 135.88 68.9216C136.295 69.3407 136.764 69.7026 137.275 69.9977L165.614 86.2397C166.04 86.4936 166.435 86.7974 166.789 87.1447C167.634 88.0008 168.175 89.11 168.33 90.3027C168.485 91.4954 168.244 92.7059 167.645 93.7491L148.924 126.649C148.67 127.075 148.366 127.469 148.018 127.823C147.159 128.664 146.05 129.203 144.858 129.357C143.665 129.511 142.455 129.273 141.41 128.679L113.071 112.413C111.826 111.698 110.381 111.412 108.957 111.598C107.534 111.783 106.211 112.43 105.191 113.44C104.771 113.855 104.409 114.324 104.114 114.834L87.7415 143.111C87.4956 143.542 87.1908 143.937 86.836 144.285C85.9856 145.131 84.8797 145.674 83.6896 145.828C82.4996 145.983 81.2917 145.742 80.2528 145.141L47.3858 126.306C46.9597 126.052 46.5653 125.749 46.2111 125.401C45.366 124.545 44.8247 123.436 44.67 122.243C44.5153 121.05 44.7558 119.84 45.3546 118.797L61.6045 90.4714C62.3223 89.2296 62.6128 87.7868 62.4316 86.3641C62.2504 84.9415 61.6074 83.6175 60.6012 82.5951C60.1824 82.1698 59.7043 81.8073 59.1817 81.5188L30.8667 65.2524C30.4227 65.0143 30.0182 64.7089 29.6675 64.3473C28.828 63.493 28.2902 62.3884 28.1356 61.2009C27.981 60.0135 28.2181 58.808 28.811 57.7674L28.346 57.4984L27.9055 57.2293C27.1877 58.4712 26.8972 59.9139 27.0784 61.3366C27.2597 62.7592 27.9027 64.0832 28.9089 65.1056C29.3276 65.5309 29.8057 65.8934 30.3283 66.1819L58.6433 82.4483C59.0856 82.679 59.49 82.976 59.8425 83.3289C60.684 84.1871 61.2229 85.296 61.3774 86.4877C61.532 87.6794 61.2938 88.889 60.699 89.9333L44.4246 118.259C43.704 119.506 43.4141 120.955 43.5999 122.383C43.7857 123.811 44.4367 125.138 45.4525 126.16C45.8698 126.569 46.3387 126.923 46.8474 127.211L79.7144 146.07C80.9583 146.789 82.4043 147.078 83.8288 146.892C85.2533 146.706 86.5768 146.056 87.5947 145.043C88.0196 144.633 88.3823 144.164 88.6715 143.649L104.872 115.372C105.127 114.946 105.431 114.552 105.778 114.198C106.637 113.357 107.746 112.819 108.938 112.664C110.131 112.51 111.341 112.748 112.386 113.342L140.725 129.584C141.968 130.301 143.411 130.592 144.834 130.411C146.258 130.23 147.583 129.587 148.605 128.581C149.025 128.166 149.387 127.697 149.682 127.187L168.502 94.3117C169.212 93.0662 169.497 91.6228 169.311 90.201C169.126 88.7793 168.48 87.457 167.474 86.4353C167.053 86.0235 166.584 85.6623 166.079 85.3591L137.739 69.1172C137.308 68.8714 136.912 68.5668 136.565 68.2122C135.72 67.3561 135.178 66.2469 135.024 65.0542C134.869 63.8615 135.109 62.6509 135.708 61.6078L151.958 33.2823C152.676 32.0405 152.966 30.5977 152.785 29.175C152.604 27.7524 151.961 26.4284 150.955 25.406C150.529 24.9883 150.052 24.6266 149.535 24.3297L116.668 5.495C115.426 4.77759 113.982 4.4872 112.559 4.66834C111.136 4.84949 109.811 5.49215 108.788 6.49786C108.37 6.92299 108.008 7.39976 107.711 7.91658L91.4614 36.242C91.2073 36.668 90.9034 37.0622 90.5559 37.4162C89.6973 38.2573 88.5878 38.7959 87.3955 38.9504C86.2032 39.1048 84.993 38.8668 83.9482 38.2723L55.6821 22.0059C54.4371 21.2916 52.9921 21.0053 51.5686 21.1908C50.1451 21.3764 48.8219 22.0237 47.8019 23.0333C47.3825 23.4481 47.0204 23.917 46.7251 24.4276L27.881 57.2782L28.3215 57.4984Z" fill="white"/>
<path d="M392.428 55.7127L411.272 22.8621C412.071 21.4812 413.384 20.4722 414.925 20.0552C416.465 19.6382 418.108 19.847 419.495 20.6361L447.835 36.9025C449.225 37.6927 450.872 37.9022 452.416 37.4854C453.961 37.0685 455.278 36.0591 456.082 34.6766L472.332 6.3511C473.131 4.96364 474.448 3.94992 475.995 3.53257C477.541 3.11522 479.19 3.32834 480.579 4.12517L513.422 22.9599C514.809 23.7592 515.824 25.074 516.246 26.618C516.668 28.1621 516.462 29.8102 515.673 31.2032L499.399 59.5286C499.005 60.2143 498.75 60.9709 498.648 61.7552C498.547 62.5395 498.601 63.3361 498.808 64.0994C499.015 64.8627 499.37 65.5778 499.854 66.2038C500.337 66.8297 500.939 67.3543 501.626 67.7474L529.965 84.0137C530.652 84.4069 531.254 84.9314 531.738 85.5574C532.221 86.1833 532.577 86.8984 532.783 87.6617C532.99 88.425 533.044 89.2217 532.943 90.006C532.842 90.7903 532.587 91.5469 532.192 92.2326L513.348 125.083C512.549 126.471 511.232 127.484 509.685 127.902C508.139 128.319 506.49 128.106 505.101 127.309L476.859 111.043C475.472 110.254 473.829 110.045 472.289 110.462C470.749 110.879 469.436 111.888 468.637 113.269L452.387 141.594C451.993 142.28 451.468 142.882 450.842 143.366C450.216 143.849 449.5 144.204 448.737 144.411C447.973 144.617 447.176 144.672 446.391 144.57C445.607 144.469 444.85 144.214 444.164 143.82L411.297 124.985C409.909 124.187 408.894 122.87 408.477 121.324C408.059 119.779 408.272 118.131 409.07 116.742L425.344 88.4167C425.738 87.731 425.993 86.9743 426.095 86.19C426.196 85.4057 426.142 84.6092 425.935 83.8459C425.728 83.0825 425.373 82.3675 424.889 81.7415C424.406 81.1156 423.804 80.591 423.117 80.1979L394.778 63.9315C394.091 63.5384 393.489 63.0139 393.005 62.3879C392.522 61.7619 392.166 61.0469 391.96 60.2836C391.753 59.5203 391.698 58.7236 391.8 57.9393C391.901 57.155 392.156 56.3984 392.551 55.7127" fill="white"/>
<path d="M270.725 55.9329L271.19 56.1775L290.034 23.3513C290.28 22.9199 290.585 22.5247 290.939 22.1772C291.796 21.3325 292.906 20.7914 294.099 20.6368C295.292 20.4822 296.503 20.7225 297.547 21.321L325.887 37.5629C327.129 38.2803 328.572 38.5707 329.996 38.3896C331.419 38.2084 332.744 37.5658 333.767 36.56C334.177 36.1287 334.539 35.6528 334.844 35.1413L351.094 6.81585C351.348 6.3899 351.652 5.99575 351.999 5.64175C352.858 4.80063 353.967 4.26206 355.159 4.10758C356.352 3.9531 357.562 4.19111 358.607 4.78561L391.474 23.6448C391.905 23.8906 392.301 24.1952 392.648 24.5498C393.488 25.4042 394.026 26.5088 394.18 27.6963C394.335 28.8837 394.098 30.0892 393.505 31.1298L377.23 59.4552C376.518 60.7044 376.233 62.152 376.418 63.578C376.604 65.004 377.25 66.3305 378.258 67.356C378.68 67.7679 379.148 68.1291 379.653 68.4323L407.993 84.6742C408.423 84.9217 408.818 85.2262 409.168 85.5793C410.02 86.431 410.566 87.5409 410.721 88.7356C410.876 89.9303 410.631 91.1427 410.024 92.1836L391.204 125.034C390.95 125.46 390.646 125.854 390.299 126.208C389.44 127.05 388.331 127.588 387.139 127.743C385.946 127.897 384.736 127.659 383.691 127.065L355.352 110.798C354.107 110.084 352.662 109.798 351.238 109.983C349.815 110.169 348.492 110.816 347.472 111.826C347.052 112.24 346.69 112.709 346.395 113.22L330.022 141.545C329.768 141.971 329.464 142.365 329.117 142.719C328.26 143.564 327.151 144.105 325.957 144.26C324.764 144.414 323.553 144.174 322.509 143.576L289.642 124.741C289.216 124.487 288.822 124.183 288.468 123.836C287.626 122.978 287.087 121.869 286.933 120.677C286.778 119.485 287.016 118.276 287.611 117.231L303.885 88.9059C304.6 87.6615 304.887 86.2172 304.701 84.7944C304.515 83.3716 303.868 82.049 302.858 81.0295C302.439 80.6043 301.961 80.2417 301.438 79.9533L273.123 63.6869C272.691 63.4411 272.296 63.1365 271.948 62.7819C271.103 61.9258 270.562 60.8166 270.407 59.6239C270.253 58.4312 270.493 57.2207 271.092 56.1775L270.627 55.9329L270.162 55.6638C269.443 56.907 269.154 58.3523 269.34 59.7761C269.526 61.1999 270.176 62.5228 271.19 63.5402C271.6 63.9648 272.07 64.3274 272.585 64.6164L300.924 80.8828C301.355 81.12 301.75 81.4164 302.099 81.7634C302.94 82.6216 303.479 83.7305 303.634 84.9222C303.788 86.1139 303.55 87.3234 302.955 88.3677L286.681 116.693C285.966 117.938 285.68 119.382 285.866 120.805C286.051 122.227 286.699 123.55 287.709 124.57C288.124 124.989 288.593 125.351 289.104 125.646L321.971 144.505C323.215 145.223 324.661 145.512 326.085 145.326C327.51 145.141 328.833 144.491 329.851 143.478C330.27 143.063 330.633 142.594 330.928 142.083L347.3 113.758C347.546 113.327 347.851 112.931 348.206 112.584C349.064 111.743 350.174 111.204 351.366 111.05C352.558 110.895 353.769 111.133 354.813 111.728L383.128 127.97C384.376 128.685 385.822 128.974 387.249 128.793C388.676 128.612 390.004 127.971 391.033 126.967C391.438 126.539 391.799 126.072 392.11 125.572L410.954 92.6973C411.673 91.4541 411.962 90.0087 411.776 88.585C411.59 87.1612 410.94 85.8383 409.926 84.821C409.51 84.4035 409.041 84.0417 408.531 83.7447L380.192 67.5028C379.76 67.257 379.365 66.9524 379.017 66.5978C378.175 65.7395 377.637 64.6306 377.482 63.4389C377.328 62.2472 377.566 61.0376 378.16 59.9933L394.41 31.6679C395.132 30.4273 395.425 28.9835 395.244 27.5598C395.062 26.1361 394.417 24.8118 393.407 23.7916C392.982 23.3738 392.505 23.0121 391.988 22.7153L359.145 3.88058C357.898 3.16524 356.451 2.8761 355.024 3.0571C353.598 3.23809 352.269 3.87935 351.24 4.88348C350.83 5.30936 350.477 5.78618 350.188 6.3022L333.914 34.6276C333.66 35.0536 333.356 35.4478 333.008 35.8018C332.149 36.6429 331.04 37.1815 329.848 37.3359C328.655 37.4904 327.445 37.2524 326.4 36.6579L298.061 20.3915C296.816 19.6772 295.371 19.3909 293.947 19.5765C292.524 19.762 291.201 20.4093 290.181 21.4189C289.769 21.8401 289.407 22.308 289.104 22.8132L270.26 55.6638L270.725 55.9329Z" fill="white"/>
</g>
<defs>
<filter id="filter0_d_76_6" x="0" y="0" width="536" height="174" filterUnits="userSpaceOnUse" color-interpolation-filters="sRGB">
<feFlood flood-opacity="0" result="BackgroundImageFix"/>
<feColorMatrix in="SourceAlpha" type="matrix" values="0 0 0 0 0 0 0 0 0 0 0 0 0 0 0 0 0 0 127 0" result="hardAlpha"/>
<feOffset dx="-12" dy="12"/>
<feGaussianBlur stdDeviation="7.5"/>
<feComposite in2="hardAlpha" operator="out"/>
<feColorMatrix type="matrix" values="0 0 0 0 0 0 0 0 0 0 0 0 0 0 0 0 0 0 0.07 0"/>
<feBlend mode="normal" in2="BackgroundImageFix" result="effect1_dropShadow_76_6"/>
<feBlend mode="normal" in="SourceGraphic" in2="effect1_dropShadow_76_6" result="shape"/>
</filter>
</defs>
</svg>
